<svg xmlns="http://www.w3.org/2000/svg" viewBox="0 0 64 64" width="64" height="64">
  <g>
    <path d="M16 11c0 1.71 2.149 3 5 3s5-1.29 5-3-2.149-3-5-3-5 1.29-5 3zm5-1c1.936 0 3 .751 3 1s-1.064 1-3 1-3-.751-3-1 1.064-1 3-1zM35 36c0 1.71 2.149 3 5 3s5-1.29 5-3-2.149-3-5-3-5 1.29-5 3zm8 0c0 .249-1.064 1-3 1s-3-.751-3-1 1.064-1 3-1 3 .751 3 1z" fill="#575757" />
    <path d="M60 35a.959.959 0 0 0-.042-.208 1 1 0 0 0-.569-1.2l-5.553-2.341C53.305 29.928 51.411 29 49 29c-.715 0 .268.332-4.079-1.5-.321-1.257-1.85-2.21-3.921-2.443 0-16.4.039-15.657-.078-15.935a1.042 1.042 0 0 0-.525-.529c-.192-.083.006 0-5.561-2.346C34.305 4.928 32.411 4 30 4c-.715 0 .268.332-4.079-1.5-.86-3.331-8.981-3.336-9.842 0C11.741 4.328 12.717 4 12 4c-2.411 0-4.3.928-4.836 2.247-2.79 1.177-5.7 2.4-5.56 2.346a.957.957 0 0 0-.488.473C.943 9.409 1 7.085 1 43a1 1 0 0 0 .612.922C41.715 60.807 39.555 60 40 60c.338 0-.92.472 19.388-8.078a.779.779 0 0 0 .431-.38c.25-.377.181.826.181-16.542zm-19 8.174 17-7.158v14.32l-17 7.158zM52 32c0 .249-1.064 1-3 1s-3-.751-3-1 1.064-1 3-1 3 .751 3 1zm-3 3a5.7 5.7 0 0 0 4.532-1.71l2.893 1.219L40 41.425l-16.425-6.916 2.893-1.219A5.7 5.7 0 0 0 31 35c4.881 0 6.418-3.4 3.592-5.124l1.016-.428c1.833 2.074 6.952 2.073 8.784 0l1.016.428C42.554 31.615 44.177 35 49 35zm-13.921-7.5C30.741 29.328 31.717 29 31 29c-2.411 0-4.3.928-4.836 2.247L22 33V18.174l17-7.158v14.041c-2.071.233-3.6 1.186-3.921 2.443zM31 31c1.936 0 3 .751 3 1s-1.064 1-3 1-3-.751-3-1 1.064-1 3-1zM3 11.016l17 7.158V33L3 25.846zM43 28c0 .249-1.064 1-3 1s-3-.751-3-1 1.064-1 3-1zM33 7c0 .249-1.064 1-3 1s-3-.751-3-1 1.064-1 3-1zM21 2c1.936 0 3 .751 3 1s-1.064 1-3 1-3-.751-3-1 1.064-1 3-1zm-4.392 2.448c1.833 2.074 6.952 2.073 8.784 0l1.016.428A2.554 2.554 0 0 0 25 7c0 3.354 7.44 4.054 9.532 1.29l2.892 1.219L21 16.425 4.576 9.509 7.468 8.29C9.558 11.051 17 10.357 17 7a2.554 2.554 0 0 0-1.408-2.124zM12 6c1.936 0 3 .751 3 1s-1.064 1-3 1-3-.751-3-1 1.064-1 3-1zM3 28.016l17.61 7.415L39 43.174v14.32L3 42.336z" fill="#575757" />
    <path d="m36.4 52.083-22-9.53a1 1 0 1 0-.794 1.835l22 9.529a1 1 0 1 0 .794-1.834zM9.4 40.382l-3-1.3a1 1 0 1 0-.8 1.835l3 1.3a1 1 0 1 0 .8-1.835z" fill="#575757" />
  </g>
</svg>